<?xml version="1.0" encoding="UTF-8"?><svg id="Layer_1" xmlns="http://www.w3.org/2000/svg" viewBox="0 0 403.474 111.511"><defs><style>.cls-1{fill:#0fa180;}.cls-2{fill:#fff;}.cls-3{fill:#70e0b4;}</style></defs><g id="Horiz_Reversed"><path class="cls-3" d="M1.578,81.236c1.458-2.884,4.073-4.33,6.945-5.523,4.525-1.879,9.009-3.858,13.51-5.793,3.874-1.666,7.75-3.327,11.622-4.996,2.135-.92,4.278-1.824,6.397-2.782,2.656-1.201,5.149-.837,7.323.972,2.087,1.737,2.762,4.101,2.082,6.733-.395,1.528-1.29,2.792-2.574,3.781-6.021,4.638-12.022,9.3-18.035,13.949-3.605,2.787-7.193,5.597-10.832,8.339-4.025,3.032-9.566,2.88-13.607-.15-4.34-3.253-5.846-9.752-2.83-14.53Z"/><path class="cls-3" d="M107.983,91.512c-3.11,6.001-11.259,7.876-16.982,3.349-2.893-2.289-5.925-4.403-8.885-6.607-2.91-2.166-5.803-4.354-8.714-6.518-3.534-2.627-7.043-5.289-10.628-7.845-3.314-2.363-4.33-6.174-2.381-9.455,1.512-2.546,4.939-3.869,7.699-2.831,3.017,1.134,5.984,2.401,8.97,3.618,4.106,1.674,8.211,3.351,12.312,5.037,3.356,1.38,6.705,2.775,10.057,4.163,1.346.557,2.768.982,4.025,1.695,3.221,1.829,5.296,4.556,5.857,8.284.385,2.562.074,5.019-1.33,7.11Z"/><path class="cls-3" d="M43.914,6.341c2.986-5.292,8.506-7.461,13.66-5.787,5.114,1.662,8.292,6.815,7.642,12.255-1.299,10.882-2.537,21.772-3.846,32.653-.199,1.652-.175,3.337-.781,4.944-1.066,2.825-3.75,4.527-6.905,4.272-2.803-.227-5.385-2.529-5.81-5.345-.592-3.924-1.08-7.864-1.614-11.797-.709-5.224-1.425-10.448-2.128-15.673-.439-3.26-.899-6.517-1.274-9.785-.255-2.224.315-4.311,1.055-5.739Z"/><path class="cls-1" d="M15.715,54.49c-6.224-3.53-8.48-11.592-4.94-17.779,3.647-6.372,11.439-8.647,17.882-4.964,6.589,3.766,8.406,11.635,4.88,17.922-3.478,6.202-11.579,8.362-17.822,4.821Z"/><path class="cls-1" d="M97.777,48.955c-3.634,6.382-11.493,8.565-17.87,4.811-6.224-3.663-8.358-11.288-4.73-17.655,3.68-6.458,11.51-8.429,17.859-4.78,6.28,3.609,8.288,11.674,4.74,17.624Z"/><path class="cls-1" d="M66.147,104.867c-3.5,6.27-11.354,8.486-17.632,4.983-6.173-3.444-8.734-11.136-4.983-17.791,3.598-6.384,11.42-8.21,17.455-4.983,6.359,3.4,8.756,11.514,5.16,17.792Z"/><path class="cls-2" d="M373.014,36.489c-12.542,0-23.384,7.715-28.072,18.616-.587-11.253-10.043-18.621-23.675-18.947-12.067,0-20.872,5.014-23.363,13.291v-11.646h-13.501v34.258c0,6.915-5.602,12.513-12.519,12.513-6.584,0-12.188-5.598-12.188-12.513v-34.258h-13.832v15.383c-.694-1.418-1.507-2.716-2.482-3.853-2.964-4.285-6.916-7.577-11.198-9.882-4.61-2.305-9.223-3.623-14.493-3.623-3.952,0-7.906.988-11.529,2.635-3.951,1.645-7.244,4.28-10.208,7.577-2.636,2.632-4.941,5.925-6.259,9.553-.008.022-.015.044-.023.065-4.58-11.192-15.62-19.169-28.373-19.169-6.59,0-12.987,1.974-17.374,5.267V14.118h-13.162v53c0,16.798,13.414,30.631,30.543,30.631,12.697,0,23.695-7.907,28.309-19.022.028.083.053.165.081.249,1.648,3.623,3.953,7.246,6.588,9.882,2.964,3.293,6.256,5.598,9.88,6.915,3.954,1.644,7.906,2.305,12.188,2.305,6.588,0,12.516-1.649,17.457-5.272,4.797-3.518,8.344-8.286,10.959-14.291,3.015,11.144,13.255,19.233,25.117,19.233,10.863,0,20.057-6.475,23.983-15.82,2.749,9.745,14.235,14.544,25.73,14.833,15.088,0,23.03-6.652,25.12-14.199,5.362,9.053,15.244,15.187,26.424,15.187,6.259,0,12.781-1.975,17.169-5.268v4.998h13.162v-30.361c0-16.798-13.662-30.63-30.46-30.63ZM161.216,84.248c-9.551,0-17.459-7.577-17.459-17.13s7.908-17.128,17.459-17.128,17.127,7.576,17.127,17.128-7.575,17.13-17.127,17.13ZM208.141,51.965c2.636-2.306,5.929-3.293,9.552-3.293,4.282,0,7.906.987,10.541,2.966,2.962,1.975,4.939,4.942,5.928,8.891h-31.95c.99-3.623,2.964-6.254,5.928-8.564ZM232.186,77.989c-1.646,2.305-3.295,3.949-5.928,5.268-2.305,1.318-5.27,1.978-8.234,1.978-4.613,0-8.236-1.319-11.198-3.624-2.967-2.305-4.613-5.928-5.272-10.212h44.312v.33c0,2.163.269,4.258.766,6.26h-14.447ZM321.93,83.916c-9.882,0-12.519-4.61-13.179-6.59h-11.441c.387-1.801.596-3.672.596-5.598v-12.117c3.417,10.24,17.678,12.267,22.702,13.105,7.907.988,12.188,2.636,12.848,5.272.662,4.28-3.958,5.928-11.526,5.928ZM322.582,59.872c-7.898-1.318-11.858-1.974-11.526-5.929,0-3.953,6.263-4.94,9.882-4.94,4.279,0,10.543,1.318,10.543,6.59h13.261c-1.452,3.544-2.262,7.41-2.272,11.451-4.844-4.402-12.613-6.163-19.888-7.171ZM373.186,84.248c-9.552,0-17.126-7.577-17.126-17.13s7.575-17.128,17.126-17.128,17.126,7.576,17.126,17.128-7.575,17.13-17.126,17.13Z"/></g></svg>